<?xml version="1.0" encoding="utf-8"?>
<!-- Generator: Adobe Illustrator 21.0.2, SVG Export Plug-In . SVG Version: 6.00 Build 0)  -->
<svg version="1.2" baseProfile="tiny" id="Слой_1"
	 xmlns="http://www.w3.org/2000/svg" xmlns:xlink="http://www.w3.org/1999/xlink" x="0px" y="0px" viewBox="0 0 612 792"
	 overflow="auto" xml:space="preserve">
<g>
	<path d="M306.5,126.8c1,0,1.9,0,2.9,0c1.8,0.8,3.7,0.8,5.7,1c34.3,3,59,20.3,75.2,50.3c3.3,6.1,3.2,6.5,9.3,3.2
		c14.3-7.8,29.4-11,45.6-9c26.7,3.2,46.8,16.5,60.1,39.6c14.7,25.5,17,53.4,13.5,82c-1.6,12.8-1.2,11.8,10,9.6
		c19.9-4,37.9,0.4,53.3,13.5c17.4,14.8,24.2,34.9,26,56.9c1.6,20.4-4.6,39.1-12.8,57.4c-5.5,12.3-13.9,22.8-21.1,34.1
		c-4.3,6.7-4.3,6.7,3.2,8.6c11.7,2.9,21.6,8.3,28.1,18.9c6.2,10.2,8.1,21.2,6.5,32.9c-2.4,17.4-10.2,32.2-23.6,43
		c-24,19.5-52.4,31.4-80.1,44.3c-12.5,5.9-25.6,10.6-38.6,15.3c-5.8,2.1-5.7,2.5-3.2,8.1c6.7,15,1,31-13.6,38.6
		c-7.9,4.1-16.4,5.6-25.1,6.8c-19.4,2.5-38.9,2.6-58.3,0.9c-14.3-1.3-28.6-1.6-42.7-4.2c-9.1-1.7-18.3-3.6-27.8-2
		c-34.2,6-68.7,8.3-103.4,6.2c-12.7-0.7-25.4-2.2-36.7-9c-13.6-8.2-17.4-24.4-11.2-38c1.7-3.8,1.1-5.2-2.7-6.8
		c-17.4-7.3-35.1-13.4-52.1-21.9c-19.2-9.6-38.5-18.8-56.7-30.1c-9.3-5.7-16.8-13.4-23-22.4C6.4,544.8,2.8,533.8,1,522.3
		c0-2.6,0-5.2,0-7.7c0.3-1.4,0.8-2.8,1-4.2c2.2-17.5,17.1-34,34.9-36.6c6.9-1,7.3-2.5,3.1-8.4c-11-15-20.8-30.5-27-48.2
		c-8-22.9-10.7-45.8-1.9-68.9c4.6-12,10.5-23.7,21-31.9c16.9-13.3,36-17.1,56.9-12.6c7.3,1.6,7.6,0.9,6.6-6.2
		c-3.9-25.6-1.9-50.8,7.8-74.9c9.6-23.9,26.7-40,51.6-47.8c21-6.6,40.7-2.8,59.9,6.3c5.7,2.7,6.2,2.9,8.6-3
		c5.4-13,15.1-22.5,25.2-31.3c11.2-9.7,24.9-15.2,39.6-18.1C294.3,127.7,300.6,128.6,306.5,126.8z M228,235.9
		c0,37.6,5.2,69.8,11.7,101.9c3.8,18.6,8.4,37,12.3,55.7c6.1,29.3,13.4,58.4,20.2,87.6c1,4.3,3.5,4.4,6.8,3.3
		c18.5-6.1,37.1-5.4,55.6-0.1c4.4,1.3,6.2-0.1,7.2-4.2c2-8.8,4.1-17.6,6.3-26.3c6.8-28.3,13.4-56.7,19.5-85.3
		c4.2-19.8,8-39.8,11.6-59.7c3.6-20.2,5.8-40.5,7-60.9c1.1-18.7,0.2-37.1-5.4-55c-7.4-23.9-24.5-39.1-47-47.1
		c-26.8-9.5-52.7-5.8-75.8,12c-13.4,10.4-23.4,22.8-26.5,40.1C229,212.1,227.9,226.3,228,235.9z M437.2,185.6
		c-14.1-0.3-25.7,3.2-36.2,10.7c-3.2,2.3-4.1,5.2-3.4,8.8c4.4,23.2,3.1,46.6,0.4,69.8c-4.8,41.8-13.3,83-22.7,124
		c-6.8,29.5-14.1,58.9-21.2,88.3c-0.7,3-0.6,5.2,2.4,6.9c15.3,9,26.4,21.9,34.5,37.6c1.9,3.7,3.4,3.7,5.7,0.4
		c4.7-6.8,8.4-14.1,12.7-21.1c20-32.2,38.6-65.1,55.2-99.2c16-32.8,29.9-66.4,37.8-102.1c5.3-23.9,5.7-47.9-0.6-71.8
		c-5.2-19.8-17.3-34.4-34.4-44.8C458,187.5,447.1,185.2,437.2,185.6z M107.4,270c1.1,10.2,0.9,20.7,2.7,31
		c5,29.2,14.7,57.1,26.5,84.1c13.7,31.3,29.9,61.3,46.7,91.1c10.4,18.5,21.9,36.4,33,54.6c3.3,5.5,4.3,5.4,7.5-0.5
		c7.7-14.1,17.4-26.4,31.3-34.7c4.4-2.6,5.2-5.4,4.2-10.2c-5.1-24.1-11.6-47.8-17.1-71.9c-7.1-31.3-13.8-62.6-19.6-94.1
		c-4.2-22.7-7.5-45.4-8.6-68.5c-0.8-15.1-0.5-30.3,2.4-45.2c0.8-4.2-0.2-7.6-4.1-9.9c-12.5-7.5-25.6-12.2-40.7-10.3
		c-21.1,2.8-37.4,13-49.3,30.3C111.1,232.2,108.8,250.9,107.4,270z M594.7,378.1c0.1-9.7-1.7-19-5.9-27.7
		c-5.7-11.8-12-23.2-24.7-29.3c-14.2-6.9-28.6-6.5-43.3-2.4c-5.2,1.5-8.3,4.5-9.4,9.8c-3.7,18.3-10.9,35.4-17.8,52.6
		c-13.7,34.3-31.4,66.7-49.4,98.8c-13.1,23.3-27.1,46.1-41.8,68.4c-2.2,3.3-2.7,6.6-2,10.5c1.6,9.9,2.4,19.8,1.1,29.8
		c-0.9,7.1-2.9,13.8-4.7,20.7c-0.4,1.4-1.7,3.4,0,4.4c1.5,1,3-0.8,4.2-1.7c2.3-1.7,4.3-3.9,6.6-5.6c21.3-14.6,41.8-30,60.6-47.8
		c22.9-21.6,46.3-42.8,67.2-66.5c20-22.8,38.8-46.4,50.6-74.8C591,404.7,594.3,391.8,594.7,378.1z M218,614.1c0-0.5,0.2-1,0.1-1.4
		c-6.2-18.4-8.4-37-4.3-56.1c0.6-2.7-0.4-5-1.8-7.3c-7.9-11.9-15.5-24.1-23.1-36.2c-18.5-29.9-35.5-60.6-50.6-92.3
		c-14.7-30.9-28.4-62.1-37-95.3c-0.6-2.1-1.6-3.9-3.7-4.8c-9.1-3.7-18.5-5.9-28.3-4.9c-16.5,1.6-29,9.1-38.4,23.5
		c-11.1,17.1-13.4,35.5-10.3,54.6c2.6,16.3,9.6,31.4,18.3,45.5C54.6,464.7,74,487,94.1,508.9c20.1,21.9,42.1,41.6,64.3,61.2
		c17.1,15.2,36.4,27.7,54.5,41.6C214.3,612.8,215.8,614.3,218,614.1z M378.9,642.9c3.2,0.5,5.3-0.5,7.4-1.1
		c40.3-12.6,80.3-25.8,118.9-43.1c25.4-11.4,51.2-21.9,72.9-40.2c10.5-8.9,17.7-19.4,20-33.1c4-23.3-11-40.3-34.3-38.9
		c-3,0.2-5.7,1-7.8,3.3c-8.3,9.4-16.8,18.6-25.2,28c-9.2,10.2-18.5,20.2-28.7,29.3c-11,9.7-21.1,20.2-32.4,29.6
		c-24.5,20.2-49.3,39.8-76.2,56.8C388.7,636.3,383.7,638.8,378.9,642.9z M235.3,643.4c-4.9-4.6-9.9-6.8-14.4-9.8
		c-13.2-8.6-26.2-17.4-38.8-27.1c-26.7-20.5-52.5-42.1-76.7-65.5c-15.9-15.4-30.5-31.9-44.9-48.6c-2.2-2.6-4.5-5.2-8.1-5.7
		c-16.8-2.4-34,6.6-36.5,24.8c-1.2,9.2,0,18,3.8,26.4c6.8,14.9,19.5,24.2,32.7,32.6c27.8,17.6,58.7,28.8,88.7,41.6
		c24.7,10.6,50.5,18.4,76.3,26.3C222.9,640.2,228.2,642.6,235.3,643.4z M259.9,666.7c-0.5-1.1-1.5-1.2-2.4-1.4
		c-18.7-5-36.6-12.3-55.1-17.9c-10.6-3.2-21.3-6.5-32-9.5c-7-2-11.1,1-11.9,8.2c-0.9,8.2,4.2,16,12.4,18.6c3.7,1.2,7.5,2.1,11.3,2.6
		c24.7,3.7,49.5,1.8,74.3,0.7C257.7,667.9,259.1,668,259.9,666.7z M351.9,666.4c2.4,1.7,4,1.7,5.6,1.8c16.1,1.6,32.2,1.5,48.2,0.8
		c11.7-0.5,23.5-0.6,35-3.7c10.2-2.8,16.2-11.1,14.3-20.3c-1.4-6.4-4.9-8.9-11.2-7.2c-5.7,1.5-11.3,3.9-17,5.4
		c-20.5,5.6-40,14.3-60.7,19.2C361.7,663.5,357.3,664.9,351.9,666.4z"/>
</g>
</svg>
