<?xml version="1.0" standalone="no"?>
<!DOCTYPE svg PUBLIC "-//W3C//DTD SVG 20010904//EN"
 "http://www.w3.org/TR/2001/REC-SVG-20010904/DTD/svg10.dtd">
<svg version="1.0" xmlns="http://www.w3.org/2000/svg"
 width="16.000000pt" height="16.000000pt" viewBox="0 0 16.000000 16.000000"
 preserveAspectRatio="xMidYMid meet">
<metadata>
Created by potrace 1.11, written by Peter Selinger 2001-2013
</metadata>
<g transform="translate(0.000000,16.000000) scale(0.002528,-0.002528)"
fill="#000000" stroke="none">
<path d="M3088 5985 c-1 -2 -32 -6 -68 -9 -127 -11 -283 -70 -412 -157 -35
-23 -103 -83 -153 -133 -71 -72 -99 -110 -134 -178 -24 -48 -46 -89 -48 -92
-3 -2 -19 3 -36 13 -18 10 -45 22 -62 28 -221 81 -209 78 -365 77 -99 -1 -140
-5 -199 -23 -236 -72 -419 -218 -518 -414 -41 -82 -91 -220 -98 -273 -3 -22
-10 -61 -15 -89 -5 -27 -12 -63 -15 -80 -11 -61 -3 -318 13 -412 5 -29 6 -53
3 -53 -3 0 -44 7 -91 15 -274 49 -520 -40 -668 -243 -71 -97 -98 -149 -131
-249 -39 -116 -41 -129 -40 -258 1 -159 4 -191 28 -275 63 -217 123 -334 314
-610 25 -36 44 -66 42 -68 -2 -2 -38 -12 -81 -23 -124 -31 -209 -91 -275 -192
-49 -75 -71 -152 -74 -251 -2 -99 16 -180 61 -274 48 -99 75 -137 148 -207 87
-83 91 -86 223 -165 244 -145 616 -317 1029 -475 l72 -27 -25 -55 c-52 -114
-28 -242 63 -340 45 -47 188 -105 295 -118 30 -3 81 -10 114 -15 33 -4 168 -6
300 -4 237 4 298 7 425 18 142 13 190 19 317 41 122 20 138 21 215 8 46 -7 97
-15 113 -17 17 -2 41 -6 55 -10 14 -3 50 -7 80 -10 151 -14 189 -17 230 -22
83 -9 575 -12 625 -4 28 4 74 11 104 15 193 24 308 91 367 212 42 84 39 166
-7 263 -17 34 -17 35 4 47 12 7 45 19 72 28 28 9 70 25 95 35 25 10 108 44
185 75 77 32 164 68 193 81 29 13 55 24 57 24 8 0 276 134 350 175 145 80 301
190 373 262 39 41 72 78 72 83 0 5 6 15 13 22 7 7 27 47 45 88 96 223 69 443
-72 592 -52 54 -173 111 -286 133 -8 2 -16 4 -18 4 -1 1 42 67 96 149 147 219
212 350 256 518 30 111 34 145 37 259 8 445 -294 796 -682 793 -50 -1 -114 -6
-142 -13 -62 -14 -113 -14 -110 0 19 120 24 412 10 523 -12 87 -55 231 -98
327 -107 241 -360 433 -623 474 -85 12 -240 7 -318 -12 -37 -9 -110 -37 -163
-62 -53 -26 -98 -45 -100 -43 -1 2 -12 24 -23 50 -63 144 -226 315 -387 403
-126 70 -289 114 -442 119 -61 3 -113 3 -115 1z m224 -157 c263 -47 481 -207
581 -428 72 -158 96 -313 91 -565 -2 -77 -5 -162 -8 -190 -3 -27 -8 -77 -11
-110 -3 -33 -8 -73 -10 -90 -2 -16 -7 -52 -10 -80 -10 -75 -14 -105 -25 -160
-5 -27 -12 -66 -14 -85 -3 -19 -14 -84 -26 -145 -12 -60 -24 -121 -27 -135 -2
-14 -13 -66 -24 -117 -11 -50 -22 -104 -24 -120 -2 -15 -8 -43 -14 -61 -5 -18
-10 -35 -10 -37 0 -3 -2 -18 -5 -33 -4 -15 -8 -36 -11 -47 -2 -11 -13 -58 -23
-105 -11 -47 -34 -148 -52 -225 -17 -77 -56 -239 -87 -360 -30 -121 -56 -227
-58 -235 -8 -40 -34 -132 -38 -137 -3 -2 -29 3 -59 12 -99 28 -207 42 -316 40
-98 -2 -142 -10 -289 -51 -15 -4 -24 -2 -27 7 -10 31 -157 636 -162 664 -2 17
-16 75 -29 130 -13 55 -26 116 -29 135 -2 19 -9 55 -15 80 -5 25 -17 74 -25
110 -8 36 -26 112 -40 170 -13 58 -36 161 -50 230 -34 165 -35 169 -42 210 -3
19 -7 37 -9 40 -2 3 -7 33 -10 65 -4 33 -9 69 -11 80 -2 11 -6 43 -9 70 -4 28
-8 61 -10 75 -27 176 -27 596 0 780 23 163 82 278 203 397 119 118 280 197
462 227 46 7 218 4 272 -6z m-1352 -449 c25 -7 47 -13 50 -14 49 -11 174 -70
208 -98 10 -8 12 -27 7 -76 -4 -36 -8 -68 -10 -71 -11 -19 -18 -199 -13 -380
1 -63 26 -337 33 -360 2 -8 7 -37 10 -65 6 -50 11 -89 20 -135 3 -14 7 -38 10
-55 4 -29 40 -218 48 -260 3 -11 7 -36 11 -55 24 -134 93 -457 117 -545 5 -22
17 -69 25 -104 8 -35 16 -66 18 -70 2 -3 7 -26 10 -51 3 -25 15 -81 26 -125
11 -44 22 -88 25 -98 2 -10 7 -27 10 -37 3 -10 8 -27 10 -37 2 -10 8 -34 13
-53 31 -117 92 -382 92 -395 0 -8 -5 -15 -11 -15 -21 0 -130 -82 -196 -148
-62 -63 -173 -208 -173 -229 0 -4 -9 -19 -19 -32 l-18 -24 -84 132 c-221 348
-345 560 -538 918 -251 465 -453 979 -495 1257 -4 21 -8 41 -10 45 -3 5 -12
67 -22 161 -7 66 -7 245 0 310 30 278 165 514 356 622 158 89 359 125 490 87z
m2637 6 c224 -30 422 -174 522 -380 44 -88 77 -189 87 -265 29 -213 25 -368
-15 -566 -11 -54 -22 -108 -24 -119 -2 -11 -7 -27 -10 -35 -3 -8 -14 -42 -23
-75 -38 -140 -130 -390 -195 -533 -16 -35 -29 -65 -29 -67 0 -8 -201 -413
-250 -505 -67 -123 -194 -345 -270 -470 -5 -8 -30 -51 -56 -95 -26 -44 -50
-82 -54 -85 -4 -3 -10 -15 -14 -27 -4 -13 -12 -23 -17 -23 -5 0 -9 -5 -9 -10
0 -6 -29 -56 -65 -111 -36 -55 -65 -103 -65 -107 0 -4 -12 -20 -26 -36 -21
-23 -28 -26 -35 -15 -5 8 -9 18 -9 23 0 21 -113 176 -171 235 -34 36 -99 90
-144 120 l-81 56 33 135 c19 74 56 230 83 345 27 116 58 242 69 281 10 39 34
134 51 210 18 77 36 155 41 174 7 32 23 102 34 155 12 62 25 123 30 145 3 14
8 45 11 70 3 25 8 47 9 50 3 5 30 150 41 215 1 11 7 45 13 75 17 91 20 112 31
200 6 47 13 96 15 109 19 111 28 556 13 654 -25 153 -25 153 51 192 152 76
280 100 428 80z m-3740 -1320 c24 -3 71 -16 105 -28 56 -20 63 -26 72 -57 40
-152 165 -493 237 -648 16 -35 29 -66 29 -68 0 -17 237 -493 256 -515 8 -8 14
-22 14 -30 0 -8 4 -19 9 -24 5 -6 26 -41 46 -80 95 -175 337 -578 425 -704 57
-83 153 -237 153 -246 -1 -5 -6 -40 -12 -76 -27 -163 -6 -366 55 -523 9 -23
14 -26 -130 72 -163 110 -540 400 -576 442 -3 3 -63 56 -135 117 -132 113
-496 475 -595 592 -30 36 -75 88 -100 116 -113 129 -178 213 -264 340 -94 140
-190 340 -222 460 -4 17 -8 32 -9 35 -18 67 -25 257 -12 330 23 128 93 264
182 356 81 82 160 122 280 140 22 3 42 8 43 9 4 4 85 -2 149 -10z m4864 -9
c117 -31 210 -96 282 -200 138 -198 170 -419 95 -671 -43 -146 -145 -346 -267
-520 -48 -69 -234 -299 -280 -346 -9 -9 -41 -45 -71 -79 -61 -70 -89 -97 -439
-430 -189 -179 -185 -175 -346 -309 -177 -147 -255 -207 -355 -276 -19 -13
-73 -51 -120 -84 -47 -33 -99 -69 -116 -80 l-31 -19 24 72 c50 145 67 327 42
458 -17 94 -16 98 45 192 160 246 375 598 473 776 17 30 64 116 105 190 237
430 436 888 509 1175 11 44 30 90 42 103 19 20 62 37 126 49 13 2 40 7 60 12
51 10 153 4 222 -13z m-5122 -1752 c20 -22 61 -69 91 -105 87 -102 536 -548
635 -629 50 -41 92 -77 95 -80 3 -3 30 -25 60 -50 30 -25 57 -47 60 -50 10
-11 286 -227 335 -263 28 -20 68 -50 91 -67 23 -16 46 -30 52 -30 6 0 12 -4
14 -9 3 -8 50 -40 192 -133 41 -27 98 -62 142 -86 13 -7 24 -17 24 -23 0 -5
10 -10 23 -10 16 -1 17 -3 5 -6 -22 -5 -111 21 -488 147 -299 99 -333 111
-635 231 -302 120 -636 276 -727 340 -14 11 -29 19 -33 19 -9 0 -131 85 -191
134 -113 91 -183 228 -190 367 -9 221 120 353 340 346 66 -3 69 -4 105 -43z
m5406 13 c141 -72 204 -227 160 -396 -17 -65 -51 -147 -70 -167 -5 -7 -28 -35
-50 -63 -22 -28 -43 -51 -47 -51 -3 0 -13 -6 -20 -13 -20 -21 -208 -148 -208
-142 0 3 -15 -5 -32 -18 -33 -24 -277 -147 -398 -201 -36 -15 -73 -32 -83 -37
-60 -31 -449 -179 -672 -255 -221 -76 -549 -184 -572 -188 -13 -3 -28 -8 -34
-12 -6 -3 -28 -8 -48 -11 -33 -4 -34 -3 -14 9 179 108 345 217 351 231 2 4 8
7 13 7 18 0 385 271 483 355 24 22 61 54 81 70 21 17 42 35 49 40 6 6 29 25
51 44 171 146 576 542 700 686 33 38 77 87 98 108 l37 40 88 -5 c67 -4 98 -11
137 -31z m-4095 -1552 c102 -31 242 -74 311 -96 69 -21 135 -40 145 -42 10 -2
39 -10 64 -19 25 -9 92 -31 150 -48 57 -17 108 -34 112 -38 4 -4 -12 -8 -35
-8 -23 -1 -94 -4 -157 -8 -128 -7 -461 -8 -500 -2 -14 2 -50 7 -80 11 -122 14
-189 37 -231 77 -45 44 -59 73 -59 125 0 32 28 87 55 105 12 9 -2 13 225 -57z
m2753 40 c42 -42 44 -132 5 -186 -44 -59 -131 -90 -298 -106 -110 -10 -653
-10 -704 0 -37 8 -42 16 -14 21 7 1 40 10 73 20 33 10 71 20 84 22 23 2 115
29 206 59 22 7 92 29 155 48 197 61 303 95 360 116 66 24 113 26 133 6z"/>
</g>
</svg>
