<?xml version="1.0" encoding="utf-8"?>
<!-- Generator: Adobe Illustrator 21.0.2, SVG Export Plug-In . SVG Version: 6.00 Build 0)  -->
<svg version="1.1" id="Слой_1" xmlns:x="&ns_extend;" xmlns:i="&ns_ai;" xmlns:graph="&ns_graphs;"
	 xmlns="http://www.w3.org/2000/svg" xmlns:xlink="http://www.w3.org/1999/xlink" x="0px" y="0px" viewBox="0 0 1162.3 533.3"
	 enable-background="new 0 0 1162.3 533.3" xml:space="preserve">
<metadata>
	<sfw  xmlns="&ns_sfw;">
		<slices></slices>
		<sliceSourceBounds  bottomLeftOrigin="true" height="533.3" width="1162.3" x="379" y="273.7"></sliceSourceBounds>
	</sfw>
</metadata>
<image overflow="visible" width="4843" height="2222" xlink:href="conception1.jpg"  transform="matrix(0.24 0 0 0.24 0 0)">
</image>
<polygon fill="none" points="508.1,361.2 508.1,490 492.5,494 471.3,497 15,497 15,289.7 23.7,289.7 23.7,277.7 109,277 
	108.7,272.3 139.2,272.2 139,264.3 155,263.8 155,258.3 212.8,257.7 212,256.2 259,256.3 261.2,258.4 357.8,258.2 357.3,255 
	401,255 401.3,258.5 416.5,258 418,262 443.5,262 445,265 446.8,265 454.5,276.8 460.5,276.8 464,283.8 468.3,283.8 476.8,298.8 
	484,300.3 486.8,305 486.3,309.9 487.3,312 490.8,312.8 492,321.5 497.1,326 498.5,333 502.3,336.8 502.8,343.5 504.5,346.8 
	504.8,359.7 "/>
</svg>
